<?xml version="1.0" encoding="UTF-8" standalone="no"?>
<!-- Created with Inkscape (http://www.inkscape.org/) -->

<svg
   width="48"
   height="48"
   viewBox="0 0 48 48"
   version="1.1"
   id="svg1"
   xml:space="preserve"
   inkscape:version="1.4 (e7c3feb100, 2024-10-09)"
   sodipodi:docname="rock.svg"
   xmlns:inkscape="http://www.inkscape.org/namespaces/inkscape"
   xmlns:sodipodi="http://sodipodi.sourceforge.net/DTD/sodipodi-0.dtd"
   xmlns:xlink="http://www.w3.org/1999/xlink"
   xmlns="http://www.w3.org/2000/svg"
   xmlns:svg="http://www.w3.org/2000/svg"><sodipodi:namedview
     id="namedview1"
     pagecolor="#ffffff"
     bordercolor="#000000"
     borderopacity="0.25"
     inkscape:showpageshadow="2"
     inkscape:pageopacity="0.0"
     inkscape:pagecheckerboard="0"
     inkscape:deskcolor="#d1d1d1"
     inkscape:document-units="px"
     inkscape:zoom="8.7870108"
     inkscape:cx="25.549075"
     inkscape:cy="23.898912"
     inkscape:window-width="1280"
     inkscape:window-height="761"
     inkscape:window-x="0"
     inkscape:window-y="0"
     inkscape:window-maximized="1"
     inkscape:current-layer="layer1" /><defs
     id="defs1"><linearGradient
       id="linearGradient2"
       inkscape:collect="always"><stop
         style="stop-color:#9d9d9d;stop-opacity:1;"
         offset="0"
         id="stop2" /><stop
         style="stop-color:#4b4b4b;stop-opacity:1;"
         offset="1"
         id="stop3" /></linearGradient><linearGradient
       inkscape:collect="always"
       xlink:href="#linearGradient2"
       id="linearGradient3"
       x1="24.002758"
       y1="10.489897"
       x2="24.002758"
       y2="37.68969"
       gradientUnits="userSpaceOnUse"
       gradientTransform="matrix(1.7629627,0,0,1.8375624,-18.315965,-20.266497)" /></defs><g
     inkscape:label="Layer 1"
     inkscape:groupmode="layer"
     id="layer1"><path
       style="fill:url(#linearGradient3);stroke:#000000;stroke-width:2.32544;stroke-dasharray:none;stroke-opacity:1;paint-order:stroke fill markers"
       d="m 1.6591721,23.078866 c 0,0 4.6725458,-7.54891 5.6070553,-7.792424 0.9345095,-0.243514 3.9716656,-2.313376 4.9061756,-3.165672 0.934509,-0.852296 3.153968,-5.1137799 5.490242,-6.20959 2.336274,-1.0958083 7.242448,-4.7485074 10.045976,-4.7485074 2.803529,0 8.176956,0.2435119 9.345094,1.4610789 1.168137,1.217567 6.307938,6.5748589 7.125634,9.2535045 0.817696,2.678646 3.738038,8.401209 2.219459,12.662691 -1.518577,4.261481 -4.672546,10.47107 -6.541565,13.636743 -1.869019,3.165672 -7.125634,3.165672 -9.345093,4.870265 -2.219461,1.704594 -1.752205,4.017969 -7.125634,3.774456 C 18.013086,46.577899 8.6679925,45.360332 6.3317179,43.777496 3.995445,42.194658 3.0609355,40.124797 2.7104955,37.324394 2.3600538,34.523991 0.95829037,29.044942 1.1919164,26.366296 1.4255442,23.68765 1.6591721,23.078866 1.6591721,23.078866 Z"
       id="path1" /><path
       style="fill:#ffffff;fill-opacity:0.507352;stroke:#000000;stroke-width:0;stroke-dasharray:none;stroke-opacity:1;paint-order:stroke fill markers"
       d="m 7.7628293,16.589878 -4.6691291,6.587854 -0.6263472,2.136602 0.6832873,7.003303 1.2526926,6.528505 1.5373969,2.789453 5.1815942,2.195951 7.800864,1.424401 4.327484,0.29675 5.238536,-2.255301 2.106803,-1.721151 7.857803,-3.501653 6.889811,-14.184659 -0.227762,-2.136602 -1.309633,-0.118706 -1.081872,2.07725 -1.992922,0.178041 -1.822097,-1.543102 2.277622,-7.359404 2.049862,2.195951 1.423515,0.53415 0.740228,5.756955 0.170831,-2.848803 -1.309633,-4.985402 -1.651279,-4.273204 -2.84703,-3.9171022 2.619268,4.2138522 2.277624,5.697605 -1.195752,-0.652851 -2.049862,-2.255301 -0.797168,-1.246351 -2.448447,-4.985404 -1.02493,-3.7390518 -0.284702,-0.2967498 0.683287,3.3829524 -0.341645,0.7122006 3.473377,6.2911026 -2.619267,7.834207 -4.555249,2.730101 -3.188672,-0.77155 3.074792,1.424401 -0.569407,1.8992 1.024932,-2.017901 4.612189,-3.086203 2.277622,1.839852 2.220685,-0.296749 1.195752,-1.365052 0.626347,0.178041 -0.455525,2.552051 -5.466298,10.861058 -1.195753,1.365051 -1.708217,0.65285 -2.334565,-0.29675 -2.277624,-3.204902 1.537397,-1.5431 4.042782,-0.118707 -3.359495,-0.593499 0.455525,-4.569954 -1.138812,4.332553 -1.309635,1.0683 -0.512465,0.949601 -1.252694,-0.356099 1.651279,-3.145552 -2.391507,3.204901 -3.587257,0.05935 -1.93598,-1.543101 L 26.781,29.231409 22.396573,32.55501 12.887492,32.436303 5.9976788,24.483398 5.4852137,23.058996 8.6738879,17.420743 16.531691,12.01989 19.891186,7.5686374 24.731138,5.788135 25.243603,4.7791846 29.400267,2.5238836 H 27.80593 L 26.667118,3.3547834 24.9589,4.5417844 24.275613,5.253985 19.777304,7.0344856 19.492602,6.5596852 26.553237,3.4734844 27.91981,2.5238836 21.428583,5.1946354 18.182969,6.975136 l 1.138812,0.53415 -3.188675,4.095153 -7.0606334,5.104103 -0.4555249,-0.4748 5.5232373,-3.917102 4.498309,-5.0447542 -0.455525,-0.2967498 -4.213605,4.866703 -5.8079412,4.391903 0.1708135,1.00895 -3.1317323,4.985405 -0.3985847,0.830899 1.0249319,2.017903 2.3345646,2.789451 3.8719592,4.926053 -1.879039,4.213854 -2.3345648,2.433351 -0.7402275,1.780501 -2.0498619,-2.314651 -1.9359799,-11.454559 0.3416428,-3.739052 1.3665746,-0.7122 3.5872589,4.688652 3.4164348,4.510604 0.569407,0.712201 10.363189,0.05935 2.505387,1.958551 4.498307,-0.356099 1.708219,1.127649 1.02493,2.255303 1.87904,0.8309 1.138812,0.118706 -5.238536,2.195952 -3.81502,2.6114 -3.985842,1.305702 -11.558943,-1.958551 -3.1317319,-1.246351 0.3416427,-1.958551 1.0249319,-0.652851 1.7082173,-2.611402 1.480455,-2.908152 0.91105,-0.5935 -7.8578017,-9.317957 0.1138874,-1.424401 3.1886742,-5.282152 z"
       id="path2" /></g></svg>
